<svg width="314" height="35" viewBox="0 0 314 35" fill="none" xmlns="http://www.w3.org/2000/svg">
<path d="M20.208 34.704C16.3067 34.704 12.8747 33.9853 9.912 32.548C6.97867 31.1107 4.69067 29.1013 3.048 26.52C1.43467 23.9387 0.628 20.932 0.628 17.5C0.628 14.068 1.43467 11.0613 3.048 8.48C4.69067 5.89866 6.97867 3.88933 9.912 2.452C12.8747 1.01467 16.3067 0.295999 20.208 0.295999C24.1387 0.295999 27.5707 1.01467 30.504 2.452C33.4373 3.88933 35.7253 5.89866 37.368 8.48C39.0107 11.0613 39.832 14.068 39.832 17.5C39.832 20.932 39.0107 23.9387 37.368 26.52C35.7253 29.1013 33.4373 31.1107 30.504 32.548C27.5707 33.9853 24.1387 34.704 20.208 34.704ZM20.208 26.564C22.3493 26.564 24.1973 26.1973 25.752 25.464C27.3067 24.7307 28.4947 23.6893 29.316 22.34C30.1667 20.9907 30.592 19.3773 30.592 17.5C30.592 15.6227 30.1667 14.0093 29.316 12.66C28.4947 11.3107 27.3067 10.2693 25.752 9.536C24.1973 8.80266 22.3493 8.436 20.208 8.436C18.096 8.436 16.2627 8.80266 14.708 9.536C13.1533 10.2693 11.9507 11.3107 11.1 12.66C10.2493 14.0093 9.824 15.6227 9.824 17.5C9.824 19.3773 10.2493 20.9907 11.1 22.34C11.9507 23.6893 13.1533 24.7307 14.708 25.464C16.2627 26.1973 18.096 26.564 20.208 26.564ZM90.3832 0.999997V34H81.2752V4.96L85.3672 9.096H60.4632L64.5552 4.96V34H55.4472V0.999997H90.3832ZM115.049 0.999997C117.807 0.999997 120.183 1.46933 122.177 2.408C124.201 3.34666 125.741 4.68133 126.797 6.412C127.853 8.11333 128.381 10.108 128.381 12.396C128.381 14.6547 127.853 16.6493 126.797 18.38C125.741 20.0813 124.201 21.4013 122.177 22.34C120.183 23.2787 117.807 23.748 115.049 23.748H100.749V16.444H114.477C115.944 16.444 117.088 16.092 117.909 15.388C118.731 14.6547 119.141 13.6573 119.141 12.396C119.141 11.1053 118.731 10.108 117.909 9.404C117.088 8.67066 115.944 8.304 114.477 8.304H101.541L105.633 4.08V34H96.5253V0.999997H115.049ZM150.489 34.704C146.588 34.704 143.156 33.9853 140.193 32.548C137.26 31.1107 134.972 29.1013 133.329 26.52C131.716 23.9387 130.909 20.932 130.909 17.5C130.909 14.068 131.716 11.0613 133.329 8.48C134.972 5.89866 137.26 3.88933 140.193 2.452C143.156 1.01467 146.588 0.295999 150.489 0.295999C154.42 0.295999 157.852 1.01467 160.785 2.452C163.719 3.88933 166.007 5.89866 167.649 8.48C169.292 11.0613 170.113 14.068 170.113 17.5C170.113 20.932 169.292 23.9387 167.649 26.52C166.007 29.1013 163.719 31.1107 160.785 32.548C157.852 33.9853 154.42 34.704 150.489 34.704ZM150.489 26.564C152.631 26.564 154.479 26.1973 156.033 25.464C157.588 24.7307 158.776 23.6893 159.597 22.34C160.448 20.9907 160.873 19.3773 160.873 17.5C160.873 15.6227 160.448 14.0093 159.597 12.66C158.776 11.3107 157.588 10.2693 156.033 9.536C154.479 8.80266 152.631 8.436 150.489 8.436C148.377 8.436 146.544 8.80266 144.989 9.536C143.435 10.2693 142.232 11.3107 141.381 12.66C140.531 14.0093 140.105 15.6227 140.105 17.5C140.105 19.3773 140.531 20.9907 141.381 22.34C142.232 23.6893 143.435 24.7307 144.989 25.464C146.544 26.1973 148.377 26.564 150.489 26.564ZM202.632 14.2V20.8H178.476V14.2H202.632ZM184.68 17.5L182.524 30.744L178.828 26.608H204.084V34H173.416L175.924 17.5L173.416 0.999997H203.864V8.392H178.828L182.524 4.256L184.68 17.5ZM209.361 34V0.999997H218.425V26.74L216.005 24.848L234.705 0.999997H244.341L217.589 34H209.361ZM225.113 18.248L231.801 12.704L244.781 34H234.441L225.113 18.248ZM257.986 5.004H267.138V34H257.986V5.004ZM245.402 0.999997H279.722V9.096H245.402V0.999997ZM311.858 14.2V20.8H287.702V14.2H311.858ZM293.906 17.5L291.75 30.744L288.054 26.608H313.31V34H282.642L285.15 17.5L282.642 0.999997H313.09V8.392H288.054L291.75 4.256L293.906 17.5Z" fill="white"/>
</svg>
