<svg width="86" height="86" viewBox="0 0 86 86" fill="none" xmlns="http://www.w3.org/2000/svg">
<circle cx="43" cy="43" r="43" fill="#4C956C"/>
<path d="M28.3599 39.1267L27.0315 40.7899L25.7031 39.1267L27.0315 37.4635L28.3599 39.1267ZM60.3008 57.9464C60.3008 58.5703 60.1029 59.1687 59.7505 59.6099C59.3982 60.051 58.9203 60.2989 58.4219 60.2989C57.9236 60.2989 57.4457 60.051 57.0934 59.6099C56.741 59.1687 56.5431 58.5703 56.5431 57.9464H60.3008ZM36.4259 52.5522L27.0315 40.7899L29.6882 37.4635L39.0826 49.2258L36.4259 52.5522ZM27.0315 37.4635L36.4259 25.7012L39.0826 29.0276L29.6882 40.7899L27.0315 37.4635ZM28.3599 36.7742H47.1487V41.4792H28.3599V36.7742ZM60.3008 53.2415V57.9464H56.5431V53.2415H60.3008ZM47.1487 36.7742C50.6368 36.7742 53.9821 38.5092 56.4486 41.5974C58.9152 44.6856 60.3008 48.8741 60.3008 53.2415H56.5431C56.5431 50.1219 55.5533 47.1301 53.7915 44.9243C52.0297 42.7184 49.6402 41.4792 47.1487 41.4792V36.7742Z" fill="white"/>
</svg>
