<svg width="333" height="35" viewBox="0 0 333 35" fill="none" xmlns="http://www.w3.org/2000/svg">
<path d="M0.08 34V0.999997H9.144V26.74L6.724 24.848L25.424 0.999997H35.06L8.308 34H0.08ZM15.832 18.248L22.52 12.704L35.5 34H25.16L15.832 18.248ZM44.7892 27.664V20.316H67.5372V27.664H44.7892ZM62.3452 0.999997L77.3492 34H67.6252L55.0412 4.872H57.6812L45.0532 34H35.3292L50.3332 0.999997H62.3452ZM85.5294 5.004H94.6814V34H85.5294V5.004ZM72.9454 0.999997H107.265V9.096H72.9454V0.999997ZM139.401 14.2V20.8H115.245V14.2H139.401ZM121.449 17.5L119.293 30.744L115.597 26.608H140.853V34H110.185L112.693 17.5L110.185 0.999997H140.633V8.392H115.597L119.293 4.256L121.449 17.5ZM171.211 0.999997V9.14H151.147L155.239 5.004V34H146.131V0.999997H171.211ZM191.845 34.704C187.943 34.704 184.511 33.9853 181.549 32.548C178.615 31.1107 176.327 29.1013 174.685 26.52C173.071 23.9387 172.265 20.932 172.265 17.5C172.265 14.068 173.071 11.0613 174.685 8.48C176.327 5.89866 178.615 3.88933 181.549 2.452C184.511 1.01467 187.943 0.295999 191.845 0.295999C195.775 0.295999 199.207 1.01467 202.141 2.452C205.074 3.88933 207.362 5.89866 209.005 8.48C210.647 11.0613 211.469 14.068 211.469 17.5C211.469 20.932 210.647 23.9387 209.005 26.52C207.362 29.1013 205.074 31.1107 202.141 32.548C199.207 33.9853 195.775 34.704 191.845 34.704ZM191.845 26.564C193.986 26.564 195.834 26.1973 197.389 25.464C198.943 24.7307 200.131 23.6893 200.953 22.34C201.803 20.9907 202.229 19.3773 202.229 17.5C202.229 15.6227 201.803 14.0093 200.953 12.66C200.131 11.3107 198.943 10.2693 197.389 9.536C195.834 8.80266 193.986 8.436 191.845 8.436C189.733 8.436 187.899 8.80266 186.345 9.536C184.79 10.2693 183.587 11.3107 182.737 12.66C181.886 14.0093 181.461 15.6227 181.461 17.5C181.461 19.3773 181.886 20.9907 182.737 22.34C183.587 23.6893 184.79 24.7307 186.345 25.464C187.899 26.1973 189.733 26.564 191.845 26.564ZM234.694 0.999997C237.451 0.999997 239.827 1.46933 241.822 2.408C243.846 3.34666 245.386 4.68133 246.442 6.412C247.498 8.11333 248.026 10.108 248.026 12.396C248.026 14.6547 247.498 16.6493 246.442 18.38C245.386 20.0813 243.846 21.4013 241.822 22.34C239.827 23.2787 237.451 23.748 234.694 23.748H220.394V16.444H234.122C235.589 16.444 236.733 16.092 237.554 15.388C238.375 14.6547 238.786 13.6573 238.786 12.396C238.786 11.1053 238.375 10.108 237.554 9.404C236.733 8.67066 235.589 8.304 234.122 8.304H221.186L225.278 4.08V34H216.17V0.999997H234.694ZM252.006 34V0.999997H260.982V29.204L258.474 28.632L277.174 0.999997H289.098V34H280.078V5.268L282.63 5.84L263.578 34H252.006ZM295.275 34V0.999997H304.251V29.204L301.743 28.632L320.443 0.999997H332.367V34H323.347V5.268L325.899 5.84L306.847 34H295.275Z" fill="white"/>
</svg>
