<svg width="20" height="17" viewBox="0 0 20 17" fill="none" xmlns="http://www.w3.org/2000/svg">
<path d="M18.4211 14C18.8265 14.0002 19.2164 14.1486 19.5099 14.4144C19.8033 14.6802 19.9779 15.0431 19.9974 15.4279C20.0169 15.8127 19.8798 16.1898 19.6146 16.4812C19.3493 16.7726 18.9762 16.9558 18.5726 16.993L18.4211 17H1.57895C1.17346 16.9998 0.783584 16.8514 0.490119 16.5856C0.196654 16.3198 0.0220926 15.9569 0.00260604 15.5721C-0.0168805 15.1873 0.120202 14.8102 0.385448 14.5188C0.650694 14.2274 1.02377 14.0442 1.42737 14.007L1.57895 14H18.4211ZM18.4211 7C18.8398 7 19.2414 7.15804 19.5375 7.43934C19.8336 7.72064 20 8.10218 20 8.5C20 8.89782 19.8336 9.27936 19.5375 9.56066C19.2414 9.84196 18.8398 10 18.4211 10H1.57895C1.16018 10 0.758573 9.84196 0.462463 9.56066C0.166353 9.27936 0 8.89782 0 8.5C0 8.10218 0.166353 7.72064 0.462463 7.43934C0.758573 7.15804 1.16018 7 1.57895 7H18.4211ZM18.4211 0C18.8398 0 19.2414 0.158035 19.5375 0.43934C19.8336 0.720644 20 1.10218 20 1.5C20 1.89782 19.8336 2.27936 19.5375 2.56066C19.2414 2.84196 18.8398 3 18.4211 3H1.57895C1.16018 3 0.758573 2.84196 0.462463 2.56066C0.166353 2.27936 0 1.89782 0 1.5C0 1.10218 0.166353 0.720644 0.462463 0.43934C0.758573 0.158035 1.16018 0 1.57895 0H18.4211Z" fill="white"/>
</svg>
