<svg width="194" height="35" viewBox="0 0 194 35" fill="none" xmlns="http://www.w3.org/2000/svg">
<path d="M0.08 0.999997H9.188V34H0.08V0.999997ZM26.04 0.999997H35.192V34H26.04V0.999997ZM5.184 13.188H29.824V21.284H5.184V13.188ZM59.501 34.704C55.5996 34.704 52.1676 33.9853 49.205 32.548C46.2716 31.1107 43.9836 29.1013 42.341 26.52C40.7276 23.9387 39.921 20.932 39.921 17.5C39.921 14.068 40.7276 11.0613 42.341 8.48C43.9836 5.89866 46.2716 3.88933 49.205 2.452C52.1676 1.01467 55.5996 0.295999 59.501 0.295999C63.4316 0.295999 66.8636 1.01467 69.797 2.452C72.7303 3.88933 75.0183 5.89866 76.661 8.48C78.3036 11.0613 79.125 14.068 79.125 17.5C79.125 20.932 78.3036 23.9387 76.661 26.52C75.0183 29.1013 72.7303 31.1107 69.797 32.548C66.8636 33.9853 63.4316 34.704 59.501 34.704ZM59.501 26.564C61.6423 26.564 63.4903 26.1973 65.045 25.464C66.5996 24.7307 67.7876 23.6893 68.609 22.34C69.4596 20.9907 69.885 19.3773 69.885 17.5C69.885 15.6227 69.4596 14.0093 68.609 12.66C67.7876 11.3107 66.5996 10.2693 65.045 9.536C63.4903 8.80266 61.6423 8.436 59.501 8.436C57.389 8.436 55.5556 8.80266 54.001 9.536C52.4463 10.2693 51.2436 11.3107 50.393 12.66C49.5423 14.0093 49.117 15.6227 49.117 17.5C49.117 19.3773 49.5423 20.9907 50.393 22.34C51.2436 23.6893 52.4463 24.7307 54.001 25.464C55.5556 26.1973 57.389 26.564 59.501 26.564ZM105.791 17.852L106.539 16.136C109.091 16.1947 111.189 16.5907 112.831 17.324C114.503 18.028 115.75 19.0253 116.571 20.316C117.393 21.5773 117.803 23.044 117.803 24.716C117.803 26.5053 117.393 28.104 116.571 29.512C115.75 30.8907 114.518 31.9907 112.875 32.812C111.262 33.604 109.238 34 106.803 34H82.4274L84.9794 17.06L82.4274 0.999997H105.923C108.974 0.999997 111.35 1.71866 113.051 3.156C114.753 4.564 115.603 6.52933 115.603 9.052C115.603 10.4307 115.281 11.7507 114.635 13.012C113.99 14.2733 112.949 15.344 111.511 16.224C110.103 17.0747 108.197 17.6173 105.791 17.852ZM91.4474 31.888L87.9274 27.62H104.339C105.659 27.62 106.686 27.2973 107.419 26.652C108.153 26.0067 108.519 25.112 108.519 23.968C108.519 22.824 108.123 21.9147 107.331 21.24C106.539 20.536 105.366 20.184 103.811 20.184H90.2594V13.936H102.579C103.635 13.936 104.515 13.628 105.219 13.012C105.953 12.3667 106.319 11.5013 106.319 10.416C106.319 9.536 106.011 8.81733 105.395 8.26C104.779 7.67333 103.899 7.38 102.755 7.38H87.9714L91.4474 3.112L93.6914 17.06L91.4474 31.888ZM140.282 34.704C136.381 34.704 132.949 33.9853 129.986 32.548C127.053 31.1107 124.765 29.1013 123.122 26.52C121.509 23.9387 120.702 20.932 120.702 17.5C120.702 14.068 121.509 11.0613 123.122 8.48C124.765 5.89866 127.053 3.88933 129.986 2.452C132.949 1.01467 136.381 0.295999 140.282 0.295999C144.213 0.295999 147.645 1.01467 150.578 2.452C153.512 3.88933 155.8 5.89866 157.442 8.48C159.085 11.0613 159.906 14.068 159.906 17.5C159.906 20.932 159.085 23.9387 157.442 26.52C155.8 29.1013 153.512 31.1107 150.578 32.548C147.645 33.9853 144.213 34.704 140.282 34.704ZM140.282 26.564C142.424 26.564 144.272 26.1973 145.826 25.464C147.381 24.7307 148.569 23.6893 149.39 22.34C150.241 20.9907 150.666 19.3773 150.666 17.5C150.666 15.6227 150.241 14.0093 149.39 12.66C148.569 11.3107 147.381 10.2693 145.826 9.536C144.272 8.80266 142.424 8.436 140.282 8.436C138.17 8.436 136.337 8.80266 134.782 9.536C133.228 10.2693 132.025 11.3107 131.174 12.66C130.324 14.0093 129.898 15.6227 129.898 17.5C129.898 19.3773 130.324 20.9907 131.174 22.34C132.025 23.6893 133.228 24.7307 134.782 25.464C136.337 26.1973 138.17 26.564 140.282 26.564ZM192.425 14.2V20.8H168.269V14.2H192.425ZM174.473 17.5L172.317 30.744L168.621 26.608H193.877V34H163.209L165.717 17.5L163.209 0.999997H193.657V8.392H168.621L172.317 4.256L174.473 17.5Z" fill="white"/>
</svg>
